<svg width="32" height="33" viewBox="0 0 32 33" fill="none" xmlns="http://www.w3.org/2000/svg">
<g clip-path="url(#clip0)">
<path d="M31.0209 1.14803C30.9281 0.916844 30.7497 0.73035 30.5228 0.62734C30.296 0.52433 30.0382 0.512736 29.8031 0.594969C29.5679 0.677201 29.3735 0.84693 29.2603 1.06885C29.1471 1.29076 29.1238 1.54778 29.1953 1.78643C30.6817 6.05843 27.7313 9.24883 25.4817 10.9576L24.5729 9.65523C24.2673 9.21843 23.5841 8.85523 23.0529 8.84883L17.9521 8.87123C17.329 8.89004 16.7225 9.0769 16.1969 9.41203L1.16648 19.9512C0.816868 20.1972 0.578987 20.5718 0.504917 20.9928C0.430847 21.4138 0.526624 21.8471 0.771276 22.1976L7.60168 31.9704C8.11368 32.6984 8.93128 32.6104 9.66088 32.1016L24.6913 21.5608C25.1233 21.2552 25.6225 20.596 25.7985 20.092L27.3953 15.06C27.5713 14.5576 27.4641 13.7912 27.1585 13.3544L26.6049 12.5608C29.6257 10.2456 32.7617 6.15443 31.0209 1.14803V1.14803ZM24.0273 16.1208C23.7504 16.3146 23.438 16.452 23.108 16.5251C22.778 16.5981 22.4368 16.6054 22.104 16.5466C21.7712 16.4878 21.4532 16.3639 21.1682 16.1822C20.8833 16.0004 20.6369 15.7642 20.4433 15.4872C20.0512 14.9267 19.8975 14.2334 20.016 13.5597C20.1345 12.886 20.5154 12.2868 21.0753 11.8936C21.5142 11.5861 22.0382 11.4235 22.574 11.4283C23.1099 11.4332 23.6309 11.6054 24.0641 11.9208C23.6289 12.1832 23.3297 12.3368 23.2737 12.3608C23.0753 12.4554 22.915 12.6145 22.8189 12.8121C22.7229 13.0098 22.6968 13.2341 22.745 13.4485C22.7931 13.6629 22.9127 13.8546 23.084 13.9921C23.2554 14.1297 23.4683 14.205 23.6881 14.2056C23.8257 14.2056 23.9665 14.1736 24.0993 14.1112C24.4097 13.964 24.7425 13.7896 25.0897 13.5832C25.1695 14.0633 25.1122 14.5562 24.9242 15.0052C24.7363 15.4541 24.4254 15.8408 24.0273 16.1208V16.1208Z" fill="black"/>
</g>
<defs>
<clipPath id="clip0">
<rect width="32" height="32" fill="white" transform="translate(0 0.5)"/>
</clipPath>
</defs>
</svg>
