<svg width="32" height="33" viewBox="0 0 32 33" fill="none" xmlns="http://www.w3.org/2000/svg">
<path d="M18 26.5H26V28.5H18V26.5Z" fill="black"/>
<path d="M18 22.5H30V24.5H18V22.5Z" fill="black"/>
<path d="M18 18.5H30V20.5H18V18.5Z" fill="black"/>
<path d="M20.549 11.717L16 2.5L11.451 11.717L1.28003 13.195L8.64003 20.37L6.90203 30.5L14 26.769V24.509L9.55903 26.844L10.611 20.708L10.789 19.671L10.036 18.938L5.57803 14.591L11.739 13.696L12.779 13.545L13.245 12.602L16 7.019L18.755 12.602L19.221 13.545L20.261 13.696L27.715 14.781L28 12.8L20.549 11.717Z" fill="black"/>
</svg>
