<svg width="32" height="33" viewBox="0 0 32 33" fill="none" xmlns="http://www.w3.org/2000/svg">
<g clip-path="url(#clip0)">
<path d="M16.138 0.500362C16.662 0.500362 17.178 0.534362 17.658 0.614362C18.1308 0.676307 18.5972 0.779365 19.052 0.922362C19.508 1.06036 19.954 1.23236 20.4 1.44836C20.834 1.65436 21.28 1.90636 21.726 2.18036C22.48 2.66036 23.222 3.04836 23.978 3.35836C25.4663 3.95403 27.0401 4.30848 28.64 4.40836C29.452 4.46636 30.286 4.50036 31.154 4.50036V12.5004C31.154 14.0204 30.96 15.4604 30.572 16.8324C30.1993 18.1848 29.6697 19.489 28.994 20.7184C28.3212 21.946 27.5251 23.102 26.618 24.1684C25.6971 25.259 24.6999 26.2829 23.634 27.2324C22.5541 28.1846 21.4166 29.0696 20.228 29.8824C19.04 30.7064 17.84 31.4724 16.64 32.1684L16.16 32.4544L15.68 32.1684C14.4464 31.4542 13.2415 30.6916 12.068 29.8824C10.8728 29.0788 9.73477 28.1933 8.66205 27.2324C7.59682 26.2829 6.60032 25.2589 5.68005 24.1684C4.77543 23.0975 3.97576 21.9422 3.29205 20.7184C2.62791 19.4835 2.09885 18.1806 1.71405 16.8324C1.32358 15.4218 1.13108 13.9639 1.14205 12.5004V4.50036C2.01205 4.50036 2.84605 4.46636 3.65805 4.40836C4.45737 4.35284 5.25151 4.23853 6.03405 4.06636C6.80005 3.89436 7.56604 3.66636 8.32004 3.35836C9.10245 3.04259 9.85259 2.65212 10.56 2.19236C11.44 1.62036 12.332 1.19836 13.212 0.920362C14.1598 0.629825 15.1469 0.488139 16.138 0.500362V0.500362ZM29.142 6.46636C27.6281 6.3929 26.1283 6.1398 24.674 5.71236C23.2275 5.28087 21.8497 4.64585 20.582 3.82636C19.9245 3.39475 19.2104 3.05621 18.46 2.82036C17.7105 2.59383 16.931 2.4819 16.148 2.48836C15.3592 2.48326 14.574 2.59514 13.818 2.82036C13.0666 3.04855 12.3534 3.38761 11.702 3.82636C10.4322 4.65032 9.0508 5.28813 7.60005 5.72036C6.18205 6.13236 4.69805 6.38436 3.14205 6.47636V12.5104C3.14205 13.8364 3.31405 15.1044 3.65805 16.3264C4.0085 17.5377 4.49141 18.7068 5.09805 19.8124C5.71194 20.9294 6.43551 21.9826 7.25805 22.9564C8.09205 23.9384 8.98205 24.8524 9.94205 25.7204C10.902 26.5904 11.908 27.3904 12.96 28.1324C14.022 28.8764 15.086 29.5504 16.148 30.1664C17.2355 29.5333 18.2958 28.8547 19.326 28.1324C20.385 27.3927 21.3963 26.5871 22.354 25.7204C23.314 24.8524 24.206 23.9384 25.04 22.9564C25.8627 21.9827 26.5862 20.9295 27.2 19.8124C27.804 18.7082 28.2797 17.5386 28.618 16.3264C28.9725 15.0856 29.1489 13.8008 29.142 12.5104V6.46636V6.46636Z" fill="black"/>
<path fill-rule="evenodd" clip-rule="evenodd" d="M23.5941 9.91799L22.7141 9.16199L21.9021 9.23199L13.1821 19.528L10.2121 15.288L9.41214 15.152L8.48615 15.814L8.34814 16.614L12.1661 22.066L12.6001 22.306L13.5141 22.362L13.9821 22.158L23.6521 10.728L23.5941 9.91799V9.91799Z" fill="black"/>
</g>
<defs>
<clipPath id="clip0">
<rect width="32" height="32" fill="white" transform="translate(0 0.5)"/>
</clipPath>
</defs>
</svg>
